<mxfile host="app.diagrams.net" modified="2022-03-11T14:37:55.414Z" agent="5.0 (Windows NT 10.0; Win64; x64) AppleWebKit/537.36 (KHTML, like Gecko) Chrome/99.0.4844.51 Safari/537.36" etag="guGixUwongmxAGN2MzIJ" version="16.6.3" type="github" pages="3">
  <diagram id="K6J_tRLVEq_lPAbEYUFF" name="Page-1">
    <mxGraphModel dx="2650" dy="776" grid="1" gridSize="10" guides="1" tooltips="1" connect="1" arrows="1" fold="1" page="1" pageScale="1" pageWidth="1100" pageHeight="850" math="0" shadow="0">
      <root>
        <mxCell id="0" />
        <mxCell id="1" parent="0" />
        <mxCell id="5VyVQo-HFzip59mYqOMK-1" value="" style="strokeWidth=1;shadow=0;dashed=0;align=center;html=1;shape=mxgraph.mockup.containers.browserWindow;rSize=0;strokeColor=#666666;strokeColor2=#008cff;strokeColor3=#c4c4c4;mainText=,;recursiveResize=0;" parent="1" vertex="1">
          <mxGeometry x="260" y="170" width="880" height="640" as="geometry" />
        </mxCell>
        <mxCell id="5VyVQo-HFzip59mYqOMK-2" value="Page 1" style="strokeWidth=1;shadow=0;dashed=0;align=center;html=1;shape=mxgraph.mockup.containers.anchor;fontSize=17;fontColor=#666666;align=left;" parent="5VyVQo-HFzip59mYqOMK-1" vertex="1">
          <mxGeometry x="60" y="12" width="110" height="26" as="geometry" />
        </mxCell>
        <mxCell id="5VyVQo-HFzip59mYqOMK-3" value="https://www.test.io" style="strokeWidth=1;shadow=0;dashed=0;align=center;html=1;shape=mxgraph.mockup.containers.anchor;rSize=0;fontSize=17;fontColor=#666666;align=left;" parent="5VyVQo-HFzip59mYqOMK-1" vertex="1">
          <mxGeometry x="130" y="60" width="250" height="26" as="geometry" />
        </mxCell>
        <mxCell id="5VyVQo-HFzip59mYqOMK-18" value="" style="html=1;shadow=0;dashed=0;shape=mxgraph.bootstrap.rrect;rSize=5;strokeColor=#DFDFDF;html=1;whiteSpace=wrap;fillColor=#FFFFFF;fontColor=#000000;" parent="5VyVQo-HFzip59mYqOMK-1" vertex="1">
          <mxGeometry x="40" y="200" width="250" height="290" as="geometry" />
        </mxCell>
        <mxCell id="5VyVQo-HFzip59mYqOMK-19" value="Home" style="html=1;shadow=0;dashed=0;shape=mxgraph.bootstrap.topButton;rSize=5;strokeColor=none;fillColor=#0085FC;fontColor=#ffffff;perimeter=none;whiteSpace=wrap;resizeWidth=1;align=left;spacing=15;fontSize=14;" parent="5VyVQo-HFzip59mYqOMK-18" vertex="1">
          <mxGeometry width="250" height="50" relative="1" as="geometry">
            <mxPoint as="offset" />
          </mxGeometry>
        </mxCell>
        <mxCell id="5VyVQo-HFzip59mYqOMK-20" value="Tafels" style="strokeColor=inherit;fillColor=inherit;gradientColor=inherit;fontColor=inherit;html=1;shadow=0;dashed=0;perimeter=none;whiteSpace=wrap;resizeWidth=1;align=left;spacing=15;fontSize=14;" parent="5VyVQo-HFzip59mYqOMK-18" vertex="1">
          <mxGeometry width="250" height="50" relative="1" as="geometry">
            <mxPoint y="90" as="offset" />
          </mxGeometry>
        </mxCell>
        <mxCell id="5VyVQo-HFzip59mYqOMK-21" value="Gerechten" style="strokeColor=inherit;fillColor=inherit;gradientColor=inherit;fontColor=inherit;html=1;shadow=0;dashed=0;perimeter=none;whiteSpace=wrap;resizeWidth=1;align=left;spacing=15;fontSize=14;" parent="5VyVQo-HFzip59mYqOMK-18" vertex="1">
          <mxGeometry width="250" height="50" relative="1" as="geometry">
            <mxPoint y="140" as="offset" />
          </mxGeometry>
        </mxCell>
        <mxCell id="5VyVQo-HFzip59mYqOMK-22" value="Agenda" style="strokeColor=inherit;fillColor=inherit;gradientColor=inherit;fontColor=inherit;html=1;shadow=0;dashed=0;shape=mxgraph.bootstrap.bottomButton;rSize=5;perimeter=none;whiteSpace=wrap;resizeWidth=1;resizeHeight=0;align=left;spacing=15;fontSize=14;" parent="5VyVQo-HFzip59mYqOMK-18" vertex="1">
          <mxGeometry y="1" width="250" height="41" relative="1" as="geometry">
            <mxPoint y="-242" as="offset" />
          </mxGeometry>
        </mxCell>
        <mxCell id="5VyVQo-HFzip59mYqOMK-35" value="Over ons" style="strokeColor=inherit;fillColor=inherit;gradientColor=inherit;fontColor=inherit;html=1;shadow=0;dashed=0;shape=mxgraph.bootstrap.bottomButton;rSize=5;perimeter=none;whiteSpace=wrap;resizeWidth=1;resizeHeight=0;align=left;spacing=15;fontSize=14;" parent="5VyVQo-HFzip59mYqOMK-18" vertex="1">
          <mxGeometry y="190" width="250" height="50" as="geometry" />
        </mxCell>
        <mxCell id="5VyVQo-HFzip59mYqOMK-36" value="Contact" style="strokeColor=inherit;fillColor=inherit;gradientColor=inherit;fontColor=inherit;html=1;shadow=0;dashed=0;shape=mxgraph.bootstrap.bottomButton;rSize=5;perimeter=none;whiteSpace=wrap;resizeWidth=1;resizeHeight=0;align=left;spacing=15;fontSize=14;" parent="5VyVQo-HFzip59mYqOMK-18" vertex="1">
          <mxGeometry y="240" width="250" height="50" as="geometry" />
        </mxCell>
        <mxCell id="5VyVQo-HFzip59mYqOMK-23" value="&lt;font style=&quot;font-size: 18px&quot;&gt;&lt;b&gt;Item 1&lt;/b&gt;&lt;/font&gt;&lt;br&gt;Ex consequat commodo adipisicing exercitation aute excepteur occaecat ullamco duis aliqua id magna ullamco eu. Do aute ipsum ipsum ullamco cillum consectetur ut et aute consectetur labore. Fugiat laborum incididunt tempor eu consequat enim dolore proident. Qui laborum do non excepteur nulla magna eiusmod consectetur in. Aliqua et aliqua officia quis et incididunt voluptate non anim reprehenderit adipisicing dolore ut consequat deserunt mollit dolore. Aliquip nulla enim veniam non fugiat id cupidatat nulla elit cupidatat commodo velit ut eiusmod cupidatat elit dolore." style="fillColor=none;strokeColor=none;align=left;fontSize=14;fontColor=#323232;html=1;whiteSpace=wrap;verticalAlign=top;spacingRight=25;" parent="5VyVQo-HFzip59mYqOMK-1" vertex="1">
          <mxGeometry x="310" y="200" width="570" height="160" as="geometry" />
        </mxCell>
        <mxCell id="5VyVQo-HFzip59mYqOMK-24" value="" style="html=1;shadow=0;dashed=0;fillColor=#F1F1F1;strokeColor=none;resizeHeight=1;rotation=45;" parent="5VyVQo-HFzip59mYqOMK-23" vertex="1">
          <mxGeometry x="1" width="20" height="10" relative="1" as="geometry">
            <mxPoint x="39.81" y="15.6" as="offset" />
          </mxGeometry>
        </mxCell>
        <mxCell id="5VyVQo-HFzip59mYqOMK-26" value="" style="shape=triangle;direction=north;fillColor=#C1C1C1;strokeColor=none;perimeter=none;" parent="5VyVQo-HFzip59mYqOMK-24" vertex="1">
          <mxGeometry width="10" height="5" relative="1" as="geometry">
            <mxPoint x="5" y="7.5" as="offset" />
          </mxGeometry>
        </mxCell>
        <mxCell id="5VyVQo-HFzip59mYqOMK-27" value="" style="shape=triangle;direction=south;fillColor=#505050;strokeColor=none;perimeter=none;" parent="5VyVQo-HFzip59mYqOMK-24" vertex="1">
          <mxGeometry y="1" width="10" height="5" relative="1" as="geometry">
            <mxPoint x="5" y="-12.5" as="offset" />
          </mxGeometry>
        </mxCell>
        <mxCell id="5VyVQo-HFzip59mYqOMK-38" value="" style="shape=image;html=1;verticalAlign=top;verticalLabelPosition=bottom;labelBackgroundColor=#ffffff;imageAspect=0;aspect=fixed;image=https://cdn4.iconfinder.com/data/icons/miu/24/food-fork-spoon-restaurant-eating-outline-stroke-128.png;fillColor=#99CCFF;" parent="5VyVQo-HFzip59mYqOMK-1" vertex="1">
          <mxGeometry x="40" y="120" width="70" height="70" as="geometry" />
        </mxCell>
        <mxCell id="5VyVQo-HFzip59mYqOMK-41" value="Success" style="html=1;shadow=0;dashed=0;shape=mxgraph.bootstrap.rrect;rSize=5;strokeColor=none;strokeWidth=1;fillColor=#33A64C;fontColor=#FFFFFF;whiteSpace=wrap;align=center;verticalAlign=middle;spacingLeft=0;fontStyle=0;fontSize=16;spacing=5;" parent="5VyVQo-HFzip59mYqOMK-1" vertex="1">
          <mxGeometry x="780" y="120" width="90" height="40" as="geometry" />
        </mxCell>
        <mxCell id="5VyVQo-HFzip59mYqOMK-52" value="" style="strokeColor=#dddddd;shadow=1;strokeWidth=1;rounded=1;absoluteArcSize=1;arcSize=2;labelBackgroundColor=#66B2FF;fillColor=#99CCFF;" parent="1" vertex="1">
          <mxGeometry x="-270" y="840" width="140" height="70" as="geometry" />
        </mxCell>
        <mxCell id="5VyVQo-HFzip59mYqOMK-53" value="&lt;font color=&quot;#000000&quot;&gt;Name&lt;/font&gt;&lt;br&gt;App Engine&lt;hr&gt;&lt;font style=&quot;font-size: 11px&quot;&gt;Attribute Name&lt;/font&gt;" style="sketch=0;dashed=0;connectable=0;html=1;fillColor=#5184F3;strokeColor=none;shape=mxgraph.gcp2.app_engine;part=1;labelPosition=right;verticalLabelPosition=middle;align=left;verticalAlign=top;spacingLeft=5;fontColor=#999999;fontSize=12;spacingTop=-8;labelBackgroundColor=#66B2FF;" parent="5VyVQo-HFzip59mYqOMK-52" vertex="1">
          <mxGeometry width="44" height="39" relative="1" as="geometry">
            <mxPoint x="5" y="7" as="offset" />
          </mxGeometry>
        </mxCell>
      </root>
    </mxGraphModel>
  </diagram>
  <diagram id="MmVIAEuAHrnc6lL0AfFO" name="Page-2">
    <mxGraphModel dx="1550" dy="776" grid="1" gridSize="10" guides="1" tooltips="1" connect="1" arrows="1" fold="1" page="1" pageScale="1" pageWidth="1100" pageHeight="850" math="0" shadow="0">
      <root>
        <mxCell id="j9k-j_MA0UIodiUEjffE-0" />
        <mxCell id="j9k-j_MA0UIodiUEjffE-1" parent="j9k-j_MA0UIodiUEjffE-0" />
        <mxCell id="GJUT2b7dMNTfq6nCXXpO-0" value="" style="strokeWidth=1;shadow=0;dashed=0;align=center;html=1;shape=mxgraph.mockup.containers.browserWindow;rSize=0;strokeColor=#666666;strokeColor2=#008cff;strokeColor3=#c4c4c4;mainText=,;recursiveResize=0;" parent="j9k-j_MA0UIodiUEjffE-1" vertex="1">
          <mxGeometry x="260" y="170" width="880" height="640" as="geometry" />
        </mxCell>
        <mxCell id="GJUT2b7dMNTfq6nCXXpO-1" value="Gerechten" style="strokeWidth=1;shadow=0;dashed=0;align=center;html=1;shape=mxgraph.mockup.containers.anchor;fontSize=17;fontColor=#666666;align=left;" parent="GJUT2b7dMNTfq6nCXXpO-0" vertex="1">
          <mxGeometry x="60" y="12" width="110" height="26" as="geometry" />
        </mxCell>
        <mxCell id="GJUT2b7dMNTfq6nCXXpO-2" value="https://www.test.io/gerechten" style="strokeWidth=1;shadow=0;dashed=0;align=center;html=1;shape=mxgraph.mockup.containers.anchor;rSize=0;fontSize=17;fontColor=#666666;align=left;" parent="GJUT2b7dMNTfq6nCXXpO-0" vertex="1">
          <mxGeometry x="130" y="60" width="250" height="26" as="geometry" />
        </mxCell>
        <mxCell id="GJUT2b7dMNTfq6nCXXpO-3" value="" style="html=1;shadow=0;dashed=0;shape=mxgraph.bootstrap.rrect;rSize=5;strokeColor=#DFDFDF;html=1;whiteSpace=wrap;fillColor=#FFFFFF;fontColor=#000000;" parent="GJUT2b7dMNTfq6nCXXpO-0" vertex="1">
          <mxGeometry x="40" y="200" width="250" height="290" as="geometry" />
        </mxCell>
        <mxCell id="GJUT2b7dMNTfq6nCXXpO-4" value="Home" style="html=1;shadow=0;dashed=0;shape=mxgraph.bootstrap.topButton;rSize=5;strokeColor=inherit;fillColor=inherit;fontColor=inherit;perimeter=none;whiteSpace=wrap;resizeWidth=1;align=left;spacing=15;fontSize=14;gradientColor=inherit;" parent="GJUT2b7dMNTfq6nCXXpO-3" vertex="1">
          <mxGeometry width="250" height="50" relative="1" as="geometry">
            <mxPoint as="offset" />
          </mxGeometry>
        </mxCell>
        <mxCell id="GJUT2b7dMNTfq6nCXXpO-5" value="Tafels" style="strokeColor=inherit;fillColor=inherit;gradientColor=inherit;fontColor=inherit;html=1;shadow=0;dashed=0;perimeter=none;whiteSpace=wrap;resizeWidth=1;align=left;spacing=15;fontSize=14;" parent="GJUT2b7dMNTfq6nCXXpO-3" vertex="1">
          <mxGeometry width="250" height="50" relative="1" as="geometry">
            <mxPoint y="90" as="offset" />
          </mxGeometry>
        </mxCell>
        <mxCell id="GJUT2b7dMNTfq6nCXXpO-6" value="Gerechten" style="strokeColor=none;fillColor=#0085FC;fontColor=#ffffff;html=1;shadow=0;dashed=0;perimeter=none;whiteSpace=wrap;resizeWidth=1;align=left;spacing=15;fontSize=14;" parent="GJUT2b7dMNTfq6nCXXpO-3" vertex="1">
          <mxGeometry width="250" height="50" relative="1" as="geometry">
            <mxPoint y="140" as="offset" />
          </mxGeometry>
        </mxCell>
        <mxCell id="GJUT2b7dMNTfq6nCXXpO-7" value="Agenda" style="strokeColor=inherit;fillColor=inherit;gradientColor=inherit;fontColor=inherit;html=1;shadow=0;dashed=0;shape=mxgraph.bootstrap.bottomButton;rSize=5;perimeter=none;whiteSpace=wrap;resizeWidth=1;resizeHeight=0;align=left;spacing=15;fontSize=14;" parent="GJUT2b7dMNTfq6nCXXpO-3" vertex="1">
          <mxGeometry y="1" width="250" height="41" relative="1" as="geometry">
            <mxPoint y="-242" as="offset" />
          </mxGeometry>
        </mxCell>
        <mxCell id="GJUT2b7dMNTfq6nCXXpO-8" value="Over ons" style="strokeColor=inherit;fillColor=inherit;gradientColor=inherit;fontColor=inherit;html=1;shadow=0;dashed=0;shape=mxgraph.bootstrap.bottomButton;rSize=5;perimeter=none;whiteSpace=wrap;resizeWidth=1;resizeHeight=0;align=left;spacing=15;fontSize=14;" parent="GJUT2b7dMNTfq6nCXXpO-3" vertex="1">
          <mxGeometry y="190" width="250" height="50" as="geometry" />
        </mxCell>
        <mxCell id="GJUT2b7dMNTfq6nCXXpO-9" value="Contact" style="strokeColor=inherit;fillColor=inherit;gradientColor=inherit;fontColor=inherit;html=1;shadow=0;dashed=0;shape=mxgraph.bootstrap.bottomButton;rSize=5;perimeter=none;whiteSpace=wrap;resizeWidth=1;resizeHeight=0;align=left;spacing=15;fontSize=14;" parent="GJUT2b7dMNTfq6nCXXpO-3" vertex="1">
          <mxGeometry y="240" width="250" height="50" as="geometry" />
        </mxCell>
        <mxCell id="GJUT2b7dMNTfq6nCXXpO-14" value="" style="shape=image;html=1;verticalAlign=top;verticalLabelPosition=bottom;labelBackgroundColor=#ffffff;imageAspect=0;aspect=fixed;image=https://cdn4.iconfinder.com/data/icons/miu/24/food-fork-spoon-restaurant-eating-outline-stroke-128.png;fillColor=#99CCFF;" parent="GJUT2b7dMNTfq6nCXXpO-0" vertex="1">
          <mxGeometry x="40" y="120" width="70" height="70" as="geometry" />
        </mxCell>
        <mxCell id="GJUT2b7dMNTfq6nCXXpO-15" value="Success" style="html=1;shadow=0;dashed=0;shape=mxgraph.bootstrap.rrect;rSize=5;strokeColor=none;strokeWidth=1;fillColor=#33A64C;fontColor=#FFFFFF;whiteSpace=wrap;align=center;verticalAlign=middle;spacingLeft=0;fontStyle=0;fontSize=16;spacing=5;" parent="GJUT2b7dMNTfq6nCXXpO-0" vertex="1">
          <mxGeometry x="780" y="120" width="90" height="40" as="geometry" />
        </mxCell>
        <mxCell id="GJUT2b7dMNTfq6nCXXpO-20" value="" style="shape=image;html=1;verticalAlign=top;verticalLabelPosition=bottom;labelBackgroundColor=#ffffff;imageAspect=0;aspect=fixed;image=https://cdn4.iconfinder.com/data/icons/restaurant-135/32/Restaurant_restaurant_menu_food_fork-128.png;strokeColor=#99FF33;fillColor=#99CCFF;" parent="GJUT2b7dMNTfq6nCXXpO-0" vertex="1">
          <mxGeometry x="690" y="200" width="128" height="128" as="geometry" />
        </mxCell>
        <mxCell id="GJUT2b7dMNTfq6nCXXpO-29" value="" style="shape=image;html=1;verticalAlign=top;verticalLabelPosition=bottom;labelBackgroundColor=#ffffff;imageAspect=0;aspect=fixed;image=https://cdn4.iconfinder.com/data/icons/restaurant-135/32/Restaurant_restaurant_menu_food_fork-128.png;strokeColor=#99FF33;fillColor=#99CCFF;" parent="GJUT2b7dMNTfq6nCXXpO-0" vertex="1">
          <mxGeometry x="330" y="190" width="68" height="68" as="geometry" />
        </mxCell>
        <mxCell id="GJUT2b7dMNTfq6nCXXpO-28" value="" style="shape=image;html=1;verticalAlign=top;verticalLabelPosition=bottom;labelBackgroundColor=#ffffff;imageAspect=0;aspect=fixed;image=https://cdn4.iconfinder.com/data/icons/restaurant-135/32/Restaurant_restaurant_menu_food_fork-128.png;strokeColor=#99FF33;fillColor=#99CCFF;" parent="GJUT2b7dMNTfq6nCXXpO-0" vertex="1">
          <mxGeometry x="430" y="200" width="128" height="128" as="geometry" />
        </mxCell>
        <mxCell id="GJUT2b7dMNTfq6nCXXpO-27" value="" style="shape=image;html=1;verticalAlign=top;verticalLabelPosition=bottom;labelBackgroundColor=#ffffff;imageAspect=0;aspect=fixed;image=https://cdn4.iconfinder.com/data/icons/restaurant-135/32/Restaurant_restaurant_menu_food_fork-128.png;strokeColor=#99FF33;fillColor=#99CCFF;" parent="GJUT2b7dMNTfq6nCXXpO-0" vertex="1">
          <mxGeometry x="562" y="200" width="128" height="128" as="geometry" />
        </mxCell>
        <mxCell id="GJUT2b7dMNTfq6nCXXpO-21" value="" style="shape=image;html=1;verticalAlign=top;verticalLabelPosition=bottom;labelBackgroundColor=#ffffff;imageAspect=0;aspect=fixed;image=https://cdn4.iconfinder.com/data/icons/restaurant-135/32/Restaurant_restaurant_menu_food_fork-128.png;strokeColor=#99FF33;fillColor=#99CCFF;" parent="GJUT2b7dMNTfq6nCXXpO-0" vertex="1">
          <mxGeometry x="320" y="350" width="128" height="128" as="geometry" />
        </mxCell>
        <mxCell id="GJUT2b7dMNTfq6nCXXpO-25" value="" style="shape=image;html=1;verticalAlign=top;verticalLabelPosition=bottom;labelBackgroundColor=#ffffff;imageAspect=0;aspect=fixed;image=https://cdn4.iconfinder.com/data/icons/restaurant-135/32/Restaurant_restaurant_menu_food_fork-128.png;strokeColor=#99FF33;fillColor=#99CCFF;" parent="GJUT2b7dMNTfq6nCXXpO-0" vertex="1">
          <mxGeometry x="434" y="350" width="128" height="128" as="geometry" />
        </mxCell>
        <mxCell id="GJUT2b7dMNTfq6nCXXpO-22" value="" style="shape=image;html=1;verticalAlign=top;verticalLabelPosition=bottom;labelBackgroundColor=#ffffff;imageAspect=0;aspect=fixed;image=https://cdn4.iconfinder.com/data/icons/restaurant-135/32/Restaurant_restaurant_menu_food_fork-128.png;strokeColor=#99FF33;fillColor=#99CCFF;" parent="GJUT2b7dMNTfq6nCXXpO-0" vertex="1">
          <mxGeometry x="552" y="350" width="128" height="128" as="geometry" />
        </mxCell>
        <mxCell id="GJUT2b7dMNTfq6nCXXpO-26" value="" style="shape=image;html=1;verticalAlign=top;verticalLabelPosition=bottom;labelBackgroundColor=#ffffff;imageAspect=0;aspect=fixed;image=https://cdn4.iconfinder.com/data/icons/restaurant-135/32/Restaurant_restaurant_menu_food_fork-128.png;strokeColor=#99FF33;fillColor=#99CCFF;" parent="GJUT2b7dMNTfq6nCXXpO-0" vertex="1">
          <mxGeometry x="690" y="350" width="128" height="128" as="geometry" />
        </mxCell>
        <mxCell id="GJUT2b7dMNTfq6nCXXpO-30" value="" style="shape=image;html=1;verticalAlign=top;verticalLabelPosition=bottom;labelBackgroundColor=#ffffff;imageAspect=0;aspect=fixed;image=https://cdn4.iconfinder.com/data/icons/restaurant-135/32/Restaurant_restaurant_menu_food_fork-128.png;strokeColor=#99FF33;fillColor=#99CCFF;" parent="GJUT2b7dMNTfq6nCXXpO-0" vertex="1">
          <mxGeometry x="320" y="478" width="128" height="128" as="geometry" />
        </mxCell>
        <mxCell id="GJUT2b7dMNTfq6nCXXpO-31" value="" style="shape=image;html=1;verticalAlign=top;verticalLabelPosition=bottom;labelBackgroundColor=#ffffff;imageAspect=0;aspect=fixed;image=https://cdn4.iconfinder.com/data/icons/restaurant-135/32/Restaurant_restaurant_menu_food_fork-128.png;strokeColor=#99FF33;fillColor=#99CCFF;" parent="GJUT2b7dMNTfq6nCXXpO-0" vertex="1">
          <mxGeometry x="430" y="478" width="128" height="128" as="geometry" />
        </mxCell>
        <mxCell id="GJUT2b7dMNTfq6nCXXpO-32" value="" style="shape=image;html=1;verticalAlign=top;verticalLabelPosition=bottom;labelBackgroundColor=#ffffff;imageAspect=0;aspect=fixed;image=https://cdn4.iconfinder.com/data/icons/restaurant-135/32/Restaurant_restaurant_menu_food_fork-128.png;strokeColor=#99FF33;fillColor=#99CCFF;" parent="GJUT2b7dMNTfq6nCXXpO-0" vertex="1">
          <mxGeometry x="552" y="478" width="128" height="128" as="geometry" />
        </mxCell>
        <mxCell id="GJUT2b7dMNTfq6nCXXpO-33" value="" style="shape=image;html=1;verticalAlign=top;verticalLabelPosition=bottom;labelBackgroundColor=#ffffff;imageAspect=0;aspect=fixed;image=https://cdn4.iconfinder.com/data/icons/restaurant-135/32/Restaurant_restaurant_menu_food_fork-128.png;strokeColor=#99FF33;fillColor=#99CCFF;" parent="GJUT2b7dMNTfq6nCXXpO-0" vertex="1">
          <mxGeometry x="690" y="478" width="128" height="128" as="geometry" />
        </mxCell>
      </root>
    </mxGraphModel>
  </diagram>
  <diagram id="5OUxlLkc250nYp1ZlOiw" name="Page-3">
    <mxGraphModel dx="1550" dy="776" grid="1" gridSize="10" guides="1" tooltips="1" connect="1" arrows="1" fold="1" page="1" pageScale="1" pageWidth="1169" pageHeight="827" math="0" shadow="0">
      <root>
        <mxCell id="4wdw4Kn6r6U6E3YTfGxM-0" />
        <mxCell id="4wdw4Kn6r6U6E3YTfGxM-1" parent="4wdw4Kn6r6U6E3YTfGxM-0" />
        <mxCell id="vEWcsnxENSLzKa6nW2Ym-0" value="member" style="shape=table;startSize=30;container=1;collapsible=1;childLayout=tableLayout;fixedRows=1;rowLines=0;fontStyle=1;align=center;resizeLast=1;" vertex="1" parent="4wdw4Kn6r6U6E3YTfGxM-1">
          <mxGeometry x="390" y="180" width="180" height="190" as="geometry" />
        </mxCell>
        <mxCell id="vEWcsnxENSLzKa6nW2Ym-1" value="" style="shape=tableRow;horizontal=0;startSize=0;swimlaneHead=0;swimlaneBody=0;fillColor=none;collapsible=0;dropTarget=0;points=[[0,0.5],[1,0.5]];portConstraint=eastwest;top=0;left=0;right=0;bottom=1;" vertex="1" parent="vEWcsnxENSLzKa6nW2Ym-0">
          <mxGeometry y="30" width="180" height="30" as="geometry" />
        </mxCell>
        <mxCell id="vEWcsnxENSLzKa6nW2Ym-2" value="PK" style="shape=partialRectangle;connectable=0;fillColor=none;top=0;left=0;bottom=0;right=0;fontStyle=1;overflow=hidden;" vertex="1" parent="vEWcsnxENSLzKa6nW2Ym-1">
          <mxGeometry width="30" height="30" as="geometry">
            <mxRectangle width="30" height="30" as="alternateBounds" />
          </mxGeometry>
        </mxCell>
        <mxCell id="vEWcsnxENSLzKa6nW2Ym-3" value="id" style="shape=partialRectangle;connectable=0;fillColor=none;top=0;left=0;bottom=0;right=0;align=left;spacingLeft=6;fontStyle=5;overflow=hidden;" vertex="1" parent="vEWcsnxENSLzKa6nW2Ym-1">
          <mxGeometry x="30" width="150" height="30" as="geometry">
            <mxRectangle width="150" height="30" as="alternateBounds" />
          </mxGeometry>
        </mxCell>
        <mxCell id="vEWcsnxENSLzKa6nW2Ym-4" value="" style="shape=tableRow;horizontal=0;startSize=0;swimlaneHead=0;swimlaneBody=0;fillColor=none;collapsible=0;dropTarget=0;points=[[0,0.5],[1,0.5]];portConstraint=eastwest;top=0;left=0;right=0;bottom=0;" vertex="1" parent="vEWcsnxENSLzKa6nW2Ym-0">
          <mxGeometry y="60" width="180" height="30" as="geometry" />
        </mxCell>
        <mxCell id="vEWcsnxENSLzKa6nW2Ym-5" value="" style="shape=partialRectangle;connectable=0;fillColor=none;top=0;left=0;bottom=0;right=0;editable=1;overflow=hidden;" vertex="1" parent="vEWcsnxENSLzKa6nW2Ym-4">
          <mxGeometry width="30" height="30" as="geometry">
            <mxRectangle width="30" height="30" as="alternateBounds" />
          </mxGeometry>
        </mxCell>
        <mxCell id="vEWcsnxENSLzKa6nW2Ym-6" value="name" style="shape=partialRectangle;connectable=0;fillColor=none;top=0;left=0;bottom=0;right=0;align=left;spacingLeft=6;overflow=hidden;" vertex="1" parent="vEWcsnxENSLzKa6nW2Ym-4">
          <mxGeometry x="30" width="150" height="30" as="geometry">
            <mxRectangle width="150" height="30" as="alternateBounds" />
          </mxGeometry>
        </mxCell>
        <mxCell id="vEWcsnxENSLzKa6nW2Ym-7" value="" style="shape=tableRow;horizontal=0;startSize=0;swimlaneHead=0;swimlaneBody=0;fillColor=none;collapsible=0;dropTarget=0;points=[[0,0.5],[1,0.5]];portConstraint=eastwest;top=0;left=0;right=0;bottom=0;" vertex="1" parent="vEWcsnxENSLzKa6nW2Ym-0">
          <mxGeometry y="90" width="180" height="30" as="geometry" />
        </mxCell>
        <mxCell id="vEWcsnxENSLzKa6nW2Ym-8" value="" style="shape=partialRectangle;connectable=0;fillColor=none;top=0;left=0;bottom=0;right=0;editable=1;overflow=hidden;" vertex="1" parent="vEWcsnxENSLzKa6nW2Ym-7">
          <mxGeometry width="30" height="30" as="geometry">
            <mxRectangle width="30" height="30" as="alternateBounds" />
          </mxGeometry>
        </mxCell>
        <mxCell id="vEWcsnxENSLzKa6nW2Ym-9" value="DOB" style="shape=partialRectangle;connectable=0;fillColor=none;top=0;left=0;bottom=0;right=0;align=left;spacingLeft=6;overflow=hidden;" vertex="1" parent="vEWcsnxENSLzKa6nW2Ym-7">
          <mxGeometry x="30" width="150" height="30" as="geometry">
            <mxRectangle width="150" height="30" as="alternateBounds" />
          </mxGeometry>
        </mxCell>
        <mxCell id="vEWcsnxENSLzKa6nW2Ym-10" value="" style="shape=tableRow;horizontal=0;startSize=0;swimlaneHead=0;swimlaneBody=0;fillColor=none;collapsible=0;dropTarget=0;points=[[0,0.5],[1,0.5]];portConstraint=eastwest;top=0;left=0;right=0;bottom=0;" vertex="1" parent="vEWcsnxENSLzKa6nW2Ym-0">
          <mxGeometry y="120" width="180" height="30" as="geometry" />
        </mxCell>
        <mxCell id="vEWcsnxENSLzKa6nW2Ym-11" value="" style="shape=partialRectangle;connectable=0;fillColor=none;top=0;left=0;bottom=0;right=0;editable=1;overflow=hidden;" vertex="1" parent="vEWcsnxENSLzKa6nW2Ym-10">
          <mxGeometry width="30" height="30" as="geometry">
            <mxRectangle width="30" height="30" as="alternateBounds" />
          </mxGeometry>
        </mxCell>
        <mxCell id="vEWcsnxENSLzKa6nW2Ym-12" value="e_mail" style="shape=partialRectangle;connectable=0;fillColor=none;top=0;left=0;bottom=0;right=0;align=left;spacingLeft=6;overflow=hidden;" vertex="1" parent="vEWcsnxENSLzKa6nW2Ym-10">
          <mxGeometry x="30" width="150" height="30" as="geometry">
            <mxRectangle width="150" height="30" as="alternateBounds" />
          </mxGeometry>
        </mxCell>
        <mxCell id="vEWcsnxENSLzKa6nW2Ym-22" style="shape=tableRow;horizontal=0;startSize=0;swimlaneHead=0;swimlaneBody=0;fillColor=none;collapsible=0;dropTarget=0;points=[[0,0.5],[1,0.5]];portConstraint=eastwest;top=0;left=0;right=0;bottom=0;" vertex="1" parent="vEWcsnxENSLzKa6nW2Ym-0">
          <mxGeometry y="150" width="180" height="30" as="geometry" />
        </mxCell>
        <mxCell id="vEWcsnxENSLzKa6nW2Ym-23" style="shape=partialRectangle;connectable=0;fillColor=none;top=0;left=0;bottom=0;right=0;editable=1;overflow=hidden;" vertex="1" parent="vEWcsnxENSLzKa6nW2Ym-22">
          <mxGeometry width="30" height="30" as="geometry">
            <mxRectangle width="30" height="30" as="alternateBounds" />
          </mxGeometry>
        </mxCell>
        <mxCell id="vEWcsnxENSLzKa6nW2Ym-24" value="phone" style="shape=partialRectangle;connectable=0;fillColor=none;top=0;left=0;bottom=0;right=0;align=left;spacingLeft=6;overflow=hidden;" vertex="1" parent="vEWcsnxENSLzKa6nW2Ym-22">
          <mxGeometry x="30" width="150" height="30" as="geometry">
            <mxRectangle width="150" height="30" as="alternateBounds" />
          </mxGeometry>
        </mxCell>
        <mxCell id="vEWcsnxENSLzKa6nW2Ym-25" value="tournament" style="shape=table;startSize=30;container=1;collapsible=1;childLayout=tableLayout;fixedRows=1;rowLines=0;fontStyle=1;align=center;resizeLast=1;" vertex="1" parent="4wdw4Kn6r6U6E3YTfGxM-1">
          <mxGeometry x="430" y="510" width="180" height="160" as="geometry" />
        </mxCell>
        <mxCell id="vEWcsnxENSLzKa6nW2Ym-26" value="" style="shape=tableRow;horizontal=0;startSize=0;swimlaneHead=0;swimlaneBody=0;fillColor=none;collapsible=0;dropTarget=0;points=[[0,0.5],[1,0.5]];portConstraint=eastwest;top=0;left=0;right=0;bottom=1;" vertex="1" parent="vEWcsnxENSLzKa6nW2Ym-25">
          <mxGeometry y="30" width="180" height="30" as="geometry" />
        </mxCell>
        <mxCell id="vEWcsnxENSLzKa6nW2Ym-27" value="PK" style="shape=partialRectangle;connectable=0;fillColor=none;top=0;left=0;bottom=0;right=0;fontStyle=1;overflow=hidden;" vertex="1" parent="vEWcsnxENSLzKa6nW2Ym-26">
          <mxGeometry width="30" height="30" as="geometry">
            <mxRectangle width="30" height="30" as="alternateBounds" />
          </mxGeometry>
        </mxCell>
        <mxCell id="vEWcsnxENSLzKa6nW2Ym-28" value="id" style="shape=partialRectangle;connectable=0;fillColor=none;top=0;left=0;bottom=0;right=0;align=left;spacingLeft=6;fontStyle=5;overflow=hidden;" vertex="1" parent="vEWcsnxENSLzKa6nW2Ym-26">
          <mxGeometry x="30" width="150" height="30" as="geometry">
            <mxRectangle width="150" height="30" as="alternateBounds" />
          </mxGeometry>
        </mxCell>
        <mxCell id="vEWcsnxENSLzKa6nW2Ym-29" value="" style="shape=tableRow;horizontal=0;startSize=0;swimlaneHead=0;swimlaneBody=0;fillColor=none;collapsible=0;dropTarget=0;points=[[0,0.5],[1,0.5]];portConstraint=eastwest;top=0;left=0;right=0;bottom=0;" vertex="1" parent="vEWcsnxENSLzKa6nW2Ym-25">
          <mxGeometry y="60" width="180" height="30" as="geometry" />
        </mxCell>
        <mxCell id="vEWcsnxENSLzKa6nW2Ym-30" value="" style="shape=partialRectangle;connectable=0;fillColor=none;top=0;left=0;bottom=0;right=0;editable=1;overflow=hidden;" vertex="1" parent="vEWcsnxENSLzKa6nW2Ym-29">
          <mxGeometry width="30" height="30" as="geometry">
            <mxRectangle width="30" height="30" as="alternateBounds" />
          </mxGeometry>
        </mxCell>
        <mxCell id="vEWcsnxENSLzKa6nW2Ym-31" value="name" style="shape=partialRectangle;connectable=0;fillColor=none;top=0;left=0;bottom=0;right=0;align=left;spacingLeft=6;overflow=hidden;" vertex="1" parent="vEWcsnxENSLzKa6nW2Ym-29">
          <mxGeometry x="30" width="150" height="30" as="geometry">
            <mxRectangle width="150" height="30" as="alternateBounds" />
          </mxGeometry>
        </mxCell>
        <mxCell id="vEWcsnxENSLzKa6nW2Ym-32" value="" style="shape=tableRow;horizontal=0;startSize=0;swimlaneHead=0;swimlaneBody=0;fillColor=none;collapsible=0;dropTarget=0;points=[[0,0.5],[1,0.5]];portConstraint=eastwest;top=0;left=0;right=0;bottom=0;" vertex="1" parent="vEWcsnxENSLzKa6nW2Ym-25">
          <mxGeometry y="90" width="180" height="30" as="geometry" />
        </mxCell>
        <mxCell id="vEWcsnxENSLzKa6nW2Ym-33" value="" style="shape=partialRectangle;connectable=0;fillColor=none;top=0;left=0;bottom=0;right=0;editable=1;overflow=hidden;" vertex="1" parent="vEWcsnxENSLzKa6nW2Ym-32">
          <mxGeometry width="30" height="30" as="geometry">
            <mxRectangle width="30" height="30" as="alternateBounds" />
          </mxGeometry>
        </mxCell>
        <mxCell id="vEWcsnxENSLzKa6nW2Ym-34" value="date" style="shape=partialRectangle;connectable=0;fillColor=none;top=0;left=0;bottom=0;right=0;align=left;spacingLeft=6;overflow=hidden;" vertex="1" parent="vEWcsnxENSLzKa6nW2Ym-32">
          <mxGeometry x="30" width="150" height="30" as="geometry">
            <mxRectangle width="150" height="30" as="alternateBounds" />
          </mxGeometry>
        </mxCell>
        <mxCell id="vEWcsnxENSLzKa6nW2Ym-35" value="" style="shape=tableRow;horizontal=0;startSize=0;swimlaneHead=0;swimlaneBody=0;fillColor=none;collapsible=0;dropTarget=0;points=[[0,0.5],[1,0.5]];portConstraint=eastwest;top=0;left=0;right=0;bottom=0;" vertex="1" parent="vEWcsnxENSLzKa6nW2Ym-25">
          <mxGeometry y="120" width="180" height="30" as="geometry" />
        </mxCell>
        <mxCell id="vEWcsnxENSLzKa6nW2Ym-36" value="" style="shape=partialRectangle;connectable=0;fillColor=none;top=0;left=0;bottom=0;right=0;editable=1;overflow=hidden;" vertex="1" parent="vEWcsnxENSLzKa6nW2Ym-35">
          <mxGeometry width="30" height="30" as="geometry">
            <mxRectangle width="30" height="30" as="alternateBounds" />
          </mxGeometry>
        </mxCell>
        <mxCell id="vEWcsnxENSLzKa6nW2Ym-37" value="capacity" style="shape=partialRectangle;connectable=0;fillColor=none;top=0;left=0;bottom=0;right=0;align=left;spacingLeft=6;overflow=hidden;" vertex="1" parent="vEWcsnxENSLzKa6nW2Ym-35">
          <mxGeometry x="30" width="150" height="30" as="geometry">
            <mxRectangle width="150" height="30" as="alternateBounds" />
          </mxGeometry>
        </mxCell>
        <mxCell id="vEWcsnxENSLzKa6nW2Ym-38" value="race" style="shape=table;startSize=30;container=1;collapsible=1;childLayout=tableLayout;fixedRows=1;rowLines=0;fontStyle=1;align=center;resizeLast=1;" vertex="1" parent="4wdw4Kn6r6U6E3YTfGxM-1">
          <mxGeometry x="740" y="330" width="180" height="220" as="geometry" />
        </mxCell>
        <mxCell id="vEWcsnxENSLzKa6nW2Ym-39" value="" style="shape=tableRow;horizontal=0;startSize=0;swimlaneHead=0;swimlaneBody=0;fillColor=none;collapsible=0;dropTarget=0;points=[[0,0.5],[1,0.5]];portConstraint=eastwest;top=0;left=0;right=0;bottom=1;" vertex="1" parent="vEWcsnxENSLzKa6nW2Ym-38">
          <mxGeometry y="30" width="180" height="30" as="geometry" />
        </mxCell>
        <mxCell id="vEWcsnxENSLzKa6nW2Ym-40" value="PK" style="shape=partialRectangle;connectable=0;fillColor=none;top=0;left=0;bottom=0;right=0;fontStyle=1;overflow=hidden;" vertex="1" parent="vEWcsnxENSLzKa6nW2Ym-39">
          <mxGeometry width="30" height="30" as="geometry">
            <mxRectangle width="30" height="30" as="alternateBounds" />
          </mxGeometry>
        </mxCell>
        <mxCell id="vEWcsnxENSLzKa6nW2Ym-41" value="id" style="shape=partialRectangle;connectable=0;fillColor=none;top=0;left=0;bottom=0;right=0;align=left;spacingLeft=6;fontStyle=5;overflow=hidden;" vertex="1" parent="vEWcsnxENSLzKa6nW2Ym-39">
          <mxGeometry x="30" width="150" height="30" as="geometry">
            <mxRectangle width="150" height="30" as="alternateBounds" />
          </mxGeometry>
        </mxCell>
        <mxCell id="vEWcsnxENSLzKa6nW2Ym-42" value="" style="shape=tableRow;horizontal=0;startSize=0;swimlaneHead=0;swimlaneBody=0;fillColor=none;collapsible=0;dropTarget=0;points=[[0,0.5],[1,0.5]];portConstraint=eastwest;top=0;left=0;right=0;bottom=0;" vertex="1" parent="vEWcsnxENSLzKa6nW2Ym-38">
          <mxGeometry y="60" width="180" height="30" as="geometry" />
        </mxCell>
        <mxCell id="vEWcsnxENSLzKa6nW2Ym-43" value="" style="shape=partialRectangle;connectable=0;fillColor=none;top=0;left=0;bottom=0;right=0;editable=1;overflow=hidden;" vertex="1" parent="vEWcsnxENSLzKa6nW2Ym-42">
          <mxGeometry width="30" height="30" as="geometry">
            <mxRectangle width="30" height="30" as="alternateBounds" />
          </mxGeometry>
        </mxCell>
        <mxCell id="vEWcsnxENSLzKa6nW2Ym-44" value="participant_1" style="shape=partialRectangle;connectable=0;fillColor=none;top=0;left=0;bottom=0;right=0;align=left;spacingLeft=6;overflow=hidden;" vertex="1" parent="vEWcsnxENSLzKa6nW2Ym-42">
          <mxGeometry x="30" width="150" height="30" as="geometry">
            <mxRectangle width="150" height="30" as="alternateBounds" />
          </mxGeometry>
        </mxCell>
        <mxCell id="vEWcsnxENSLzKa6nW2Ym-62" style="shape=tableRow;horizontal=0;startSize=0;swimlaneHead=0;swimlaneBody=0;fillColor=none;collapsible=0;dropTarget=0;points=[[0,0.5],[1,0.5]];portConstraint=eastwest;top=0;left=0;right=0;bottom=0;" vertex="1" parent="vEWcsnxENSLzKa6nW2Ym-38">
          <mxGeometry y="90" width="180" height="30" as="geometry" />
        </mxCell>
        <mxCell id="vEWcsnxENSLzKa6nW2Ym-63" style="shape=partialRectangle;connectable=0;fillColor=none;top=0;left=0;bottom=0;right=0;editable=1;overflow=hidden;" vertex="1" parent="vEWcsnxENSLzKa6nW2Ym-62">
          <mxGeometry width="30" height="30" as="geometry">
            <mxRectangle width="30" height="30" as="alternateBounds" />
          </mxGeometry>
        </mxCell>
        <mxCell id="vEWcsnxENSLzKa6nW2Ym-64" value="participant_2" style="shape=partialRectangle;connectable=0;fillColor=none;top=0;left=0;bottom=0;right=0;align=left;spacingLeft=6;overflow=hidden;" vertex="1" parent="vEWcsnxENSLzKa6nW2Ym-62">
          <mxGeometry x="30" width="150" height="30" as="geometry">
            <mxRectangle width="150" height="30" as="alternateBounds" />
          </mxGeometry>
        </mxCell>
        <mxCell id="vEWcsnxENSLzKa6nW2Ym-48" value="" style="shape=tableRow;horizontal=0;startSize=0;swimlaneHead=0;swimlaneBody=0;fillColor=none;collapsible=0;dropTarget=0;points=[[0,0.5],[1,0.5]];portConstraint=eastwest;top=0;left=0;right=0;bottom=0;" vertex="1" parent="vEWcsnxENSLzKa6nW2Ym-38">
          <mxGeometry y="120" width="180" height="30" as="geometry" />
        </mxCell>
        <mxCell id="vEWcsnxENSLzKa6nW2Ym-49" value="" style="shape=partialRectangle;connectable=0;fillColor=none;top=0;left=0;bottom=0;right=0;editable=1;overflow=hidden;" vertex="1" parent="vEWcsnxENSLzKa6nW2Ym-48">
          <mxGeometry width="30" height="30" as="geometry">
            <mxRectangle width="30" height="30" as="alternateBounds" />
          </mxGeometry>
        </mxCell>
        <mxCell id="vEWcsnxENSLzKa6nW2Ym-50" value="tournament_id" style="shape=partialRectangle;connectable=0;fillColor=none;top=0;left=0;bottom=0;right=0;align=left;spacingLeft=6;overflow=hidden;" vertex="1" parent="vEWcsnxENSLzKa6nW2Ym-48">
          <mxGeometry x="30" width="150" height="30" as="geometry">
            <mxRectangle width="150" height="30" as="alternateBounds" />
          </mxGeometry>
        </mxCell>
        <mxCell id="vEWcsnxENSLzKa6nW2Ym-54" style="shape=tableRow;horizontal=0;startSize=0;swimlaneHead=0;swimlaneBody=0;fillColor=none;collapsible=0;dropTarget=0;points=[[0,0.5],[1,0.5]];portConstraint=eastwest;top=0;left=0;right=0;bottom=0;" vertex="1" parent="vEWcsnxENSLzKa6nW2Ym-38">
          <mxGeometry y="150" width="180" height="30" as="geometry" />
        </mxCell>
        <mxCell id="vEWcsnxENSLzKa6nW2Ym-55" style="shape=partialRectangle;connectable=0;fillColor=none;top=0;left=0;bottom=0;right=0;editable=1;overflow=hidden;" vertex="1" parent="vEWcsnxENSLzKa6nW2Ym-54">
          <mxGeometry width="30" height="30" as="geometry">
            <mxRectangle width="30" height="30" as="alternateBounds" />
          </mxGeometry>
        </mxCell>
        <mxCell id="vEWcsnxENSLzKa6nW2Ym-56" value="winner" style="shape=partialRectangle;connectable=0;fillColor=none;top=0;left=0;bottom=0;right=0;align=left;spacingLeft=6;overflow=hidden;" vertex="1" parent="vEWcsnxENSLzKa6nW2Ym-54">
          <mxGeometry x="30" width="150" height="30" as="geometry">
            <mxRectangle width="150" height="30" as="alternateBounds" />
          </mxGeometry>
        </mxCell>
        <mxCell id="vEWcsnxENSLzKa6nW2Ym-51" style="shape=tableRow;horizontal=0;startSize=0;swimlaneHead=0;swimlaneBody=0;fillColor=none;collapsible=0;dropTarget=0;points=[[0,0.5],[1,0.5]];portConstraint=eastwest;top=0;left=0;right=0;bottom=0;" vertex="1" parent="vEWcsnxENSLzKa6nW2Ym-38">
          <mxGeometry y="180" width="180" height="30" as="geometry" />
        </mxCell>
        <mxCell id="vEWcsnxENSLzKa6nW2Ym-52" style="shape=partialRectangle;connectable=0;fillColor=none;top=0;left=0;bottom=0;right=0;editable=1;overflow=hidden;" vertex="1" parent="vEWcsnxENSLzKa6nW2Ym-51">
          <mxGeometry width="30" height="30" as="geometry">
            <mxRectangle width="30" height="30" as="alternateBounds" />
          </mxGeometry>
        </mxCell>
        <mxCell id="vEWcsnxENSLzKa6nW2Ym-53" value="date" style="shape=partialRectangle;connectable=0;fillColor=none;top=0;left=0;bottom=0;right=0;align=left;spacingLeft=6;overflow=hidden;" vertex="1" parent="vEWcsnxENSLzKa6nW2Ym-51">
          <mxGeometry x="30" width="150" height="30" as="geometry">
            <mxRectangle width="150" height="30" as="alternateBounds" />
          </mxGeometry>
        </mxCell>
        <mxCell id="vEWcsnxENSLzKa6nW2Ym-58" style="edgeStyle=orthogonalEdgeStyle;rounded=0;orthogonalLoop=1;jettySize=auto;html=1;exitX=1;exitY=0.5;exitDx=0;exitDy=0;entryX=0;entryY=0.5;entryDx=0;entryDy=0;startArrow=ERmandOne;startFill=0;endArrow=ERzeroToMany;endFill=0;" edge="1" parent="4wdw4Kn6r6U6E3YTfGxM-1" source="vEWcsnxENSLzKa6nW2Ym-26" target="vEWcsnxENSLzKa6nW2Ym-48">
          <mxGeometry relative="1" as="geometry" />
        </mxCell>
        <mxCell id="vEWcsnxENSLzKa6nW2Ym-59" style="edgeStyle=orthogonalEdgeStyle;rounded=0;orthogonalLoop=1;jettySize=auto;html=1;exitX=1;exitY=0.5;exitDx=0;exitDy=0;startArrow=ERmandOne;startFill=0;endArrow=ERzeroToMany;endFill=0;" edge="1" parent="4wdw4Kn6r6U6E3YTfGxM-1" source="vEWcsnxENSLzKa6nW2Ym-1" target="vEWcsnxENSLzKa6nW2Ym-42">
          <mxGeometry relative="1" as="geometry" />
        </mxCell>
        <mxCell id="vEWcsnxENSLzKa6nW2Ym-66" style="edgeStyle=orthogonalEdgeStyle;rounded=0;orthogonalLoop=1;jettySize=auto;html=1;exitX=1;exitY=0.5;exitDx=0;exitDy=0;entryX=0;entryY=0.5;entryDx=0;entryDy=0;startArrow=ERmandOne;startFill=0;endArrow=ERzeroToMany;endFill=0;" edge="1" parent="4wdw4Kn6r6U6E3YTfGxM-1" source="vEWcsnxENSLzKa6nW2Ym-1" target="vEWcsnxENSLzKa6nW2Ym-62">
          <mxGeometry relative="1" as="geometry">
            <Array as="points">
              <mxPoint x="570" y="230" />
              <mxPoint x="620" y="230" />
              <mxPoint x="620" y="435" />
            </Array>
          </mxGeometry>
        </mxCell>
      </root>
    </mxGraphModel>
  </diagram>
</mxfile>
